<?xml version="1.0" standalone="no"?>
<!DOCTYPE svg PUBLIC "-//W3C//DTD SVG 20010904//EN"
 "http://www.w3.org/TR/2001/REC-SVG-20010904/DTD/svg10.dtd">
<svg version="1.0" xmlns="http://www.w3.org/2000/svg"
 width="171.000000pt" height="120.000000pt" viewBox="0 0 171.000000 120.000000"
 preserveAspectRatio="xMidYMid meet">

<g transform="translate(0.000000,120.000000) scale(0.100000,-0.100000)"
fill="#000000" stroke="none">
<path d="M805 1110 c-18 -8 -17 -9 7 -9 15 -1 30 4 33 9 7 12 -12 12 -40 0z"/>
<path d="M840 1095 c-16 -9 -19 -14 -9 -15 8 0 24 7 35 15 24 18 7 19 -26 0z"/>
<path d="M733 1052 c-36 -43 -26 -132 15 -132 13 0 14 -2 4 -9 -10 -6 -10 -10
2 -20 7 -6 22 -13 32 -16 11 -2 28 -6 39 -10 14 -5 16 -4 6 3 -9 7 -10 12 -2
16 14 9 33 -2 26 -15 -4 -5 0 -9 8 -9 8 0 22 16 32 36 16 34 16 37 -2 57 -10
11 -12 17 -5 13 15 -9 15 -4 0 29 -14 31 -28 33 -21 3 4 -21 3 -21 -7 -5 -6
10 -9 25 -6 33 3 8 2 12 -3 9 -6 -3 -14 3 -20 12 -6 10 -11 12 -11 6 0 -7 -4
-13 -10 -13 -5 0 -9 5 -7 11 1 6 -4 14 -10 16 -7 3 -13 -2 -13 -11 0 -9 -5
-16 -11 -16 -5 0 -8 4 -5 8 2 4 2 13 -2 19 -5 7 -15 2 -29 -15z m62 -32 c3 -5
1 -10 -4 -10 -6 0 -11 5 -11 10 0 6 2 10 4 10 3 0 8 -4 11 -10z m10 -60 c-3
-5 -12 -10 -18 -10 -7 0 -6 4 3 10 19 12 23 12 15 0z m-20 -52 c1 -17 -3 -24
-12 -21 -16 6 -17 23 -2 23 8 0 7 6 -2 17 -12 14 -12 16 1 11 8 -2 15 -16 15
-30z m102 10 c-3 -8 -6 -5 -6 6 -1 11 2 17 5 13 3 -3 4 -12 1 -19z"/>
<path d="M1057 909 c8 -10 9 -27 3 -54 -6 -27 -5 -44 2 -53 9 -10 8 -12 -3
-10 -10 2 -15 -11 -20 -47 -3 -27 -10 -66 -14 -85 -8 -37 8 -33 19 5 3 11 3 7
0 -10 -7 -45 -9 -54 -18 -62 -4 -4 -7 -3 -5 2 1 6 -1 18 -6 28 -7 16 -9 15
-21 -9 -8 -14 -12 -30 -9 -34 3 -5 0 -10 -6 -12 -9 -3 -9 -9 0 -26 8 -14 8
-22 1 -22 -5 0 -10 7 -10 15 0 8 -6 12 -14 9 -9 -3 -12 -12 -9 -21 4 -10 2
-14 -4 -10 -8 5 -103 -74 -103 -87 0 -2 9 -2 20 1 12 3 18 8 15 11 -6 7 15 32
27 32 6 0 5 -7 -2 -15 -16 -19 -1 -19 39 1 29 15 34 34 8 34 -7 0 -6 -4 3 -11
12 -9 12 -10 -3 -5 -10 3 -21 6 -23 6 -2 0 -4 4 -4 9 0 5 14 8 31 6 44 -6 72
11 64 38 -6 21 -6 22 9 3 9 -11 16 -15 16 -10 0 5 14 24 30 43 17 18 28 37 25
42 -4 5 -1 9 6 9 8 0 7 5 -2 17 -12 15 -12 16 5 10 13 -5 17 -3 13 7 -3 7 3
23 14 34 19 22 27 78 9 67 -13 -8 -13 -3 0 31 10 25 9 26 -6 13 -16 -13 -17
-11 -12 13 3 15 2 26 -1 23 -4 -2 -13 0 -21 6 -12 7 -12 9 3 9 17 0 17 1 0 24
-10 13 -27 30 -38 37 -17 10 -18 10 -8 -2z m0 -161 c-3 -8 -6 -5 -6 6 -1 11 2
17 5 13 3 -3 4 -12 1 -19z m30 -10 c-3 -7 -5 -2 -5 12 0 14 2 19 5 13 2 -7 2
-19 0 -25z m-14 -128 c3 -11 1 -18 -4 -14 -5 3 -9 12 -9 20 0 20 7 17 13 -6z
m-13 -30 c0 -5 -2 -10 -4 -10 -3 0 -8 5 -11 10 -3 6 -1 10 4 10 6 0 11 -4 11
-10z m-10 -24 c0 -3 -4 -8 -10 -11 -5 -3 -10 -1 -10 4 0 6 5 11 10 11 6 0 10
-2 10 -4z"/>
<path d="M750 822 c0 -6 5 -14 10 -17 12 -7 11 -103 -1 -111 -4 -2 -5 21 -2
51 4 36 2 55 -5 55 -6 0 -11 -20 -11 -47 0 -27 -6 -81 -15 -122 -9 -43 -12
-80 -7 -89 5 -9 11 -11 15 -4 3 6 2 13 -4 17 -16 10 -11 21 10 21 24 0 25 -5
4 -34 -13 -18 -19 -21 -30 -11 -11 9 -14 8 -14 -8 0 -10 -5 -24 -12 -31 -7 -7
-8 -12 -3 -12 4 0 -2 -9 -15 -20 -13 -11 -21 -22 -19 -24 2 -2 19 9 37 25 18
16 30 29 28 29 -2 0 11 16 30 35 19 20 35 40 35 45 2 15 5 23 15 45 5 11 9 41
9 67 0 25 3 44 6 42 4 -2 3 12 -1 32 -5 20 -10 36 -12 37 -1 1 -13 11 -25 21
-13 11 -23 14 -23 8z m37 -194 c-3 -7 -5 -2 -5 12 0 14 2 19 5 13 2 -7 2 -19
0 -25z"/>
</g>
</svg>
